<svg xmlns="http://www.w3.org/2000/svg" width="93.136" height="87.073"><path fill="black" clip-rule="evenodd" d="M83.198 3.158C55.828-3.998 30.53 1.097 7.92 17.522-2.035 24.757-2.332 38.27 5.493 47.605c7.503 8.953 19.876 10.688 29.264 4.102 9.83-6.894 12.391-19.776 5.719-29.898-1.86-2.828-4.395-5.214-7.472-8.794 16.237-6.399 31.819-6.442 47.719-2.506 2.749.681 6.372 2.423 7.737-1.652 1.402-4.204-2.385-4.945-5.262-5.699zM14.351 21.776c.412 0 6.841-3.081 12.218-1.496 4.81 1.419 8.602 7.336 9.318 10.171.824 3.262-.541 12.251-5.589 15.136-5.674 3.243-15.183.197-15.659.196-.852 0-5.407-4.091-6.368-11.009-.935-6.726 5.252-12.998 6.08-12.998zM89.433 41.019c-6.608-9.56-19.012-12.405-28.906-6.631-9.547 5.572-13.41 16.962-9.35 27.004 1.853 4.582 5.159 8.086 9.312 13.041-16.265 5.688-31.722 6.43-47.281 2.422-2.88-.742-6.473-2.312-7.898 1.578C3.782 82.6 7.665 83.256 10.492 84c14.231 3.748 27.767 3.923 40.831 1.307 8.304-1.663 16.414-4.42 24.25-8.5 4-2.083 7.166-4.416 10.373-7.454 7.966-7.546 9.587-19.507 3.487-28.334zM72.758 67.281c-6.152.328-9.942-2.217-13.878-7.072-2.9-3.578-.648-9.43-.764-12.568-.241-6.557 12.618-8.371 13.408-8.371.841 0 9.702 1.665 12.644 8.027 1.329 2.876 2.008 9.621.062 12.75-3.241 5.215-10.947 7.207-11.472 7.234z"/><path fill="red" d="M22.378 48.141c-8.831 0-14.443-5.448-14.646-14.216-.097-4.24 1.171-7.855 3.665-10.455 2.556-2.663 6.241-4.113 10.661-4.195l.375-.003c8.082 0 13.271 5.072 14.609 14.282l.009.062-.007.063a25.226 25.226 0 01-.628 3.56c-1.808 7.085-6.615 10.856-13.902 10.902h-.136zm.055-27.87l-.357.003c-4.147.077-7.59 1.42-9.957 3.887-2.306 2.403-3.478 5.771-3.387 9.74.188 8.166 5.418 13.239 13.646 13.239l.13-.001c6.879-.044 11.232-3.458 12.939-10.149.267-1.042.249-2.016.207-3.284-.437-6.003-3.611-13.435-13.221-13.435zM71.451 67.827c-8.764 0-14.237-5.171-14.64-13.83-.214-4.585 1.021-8.421 3.572-11.094 2.582-2.704 6.413-4.134 11.079-4.134 8.109.023 13.178 5.025 14.721 14.467l.013.073-.011.074c-1.271 9.352-6.276 14.346-14.476 14.442l-.258.002zm.073-28.057c-4.448 0-8.028 1.322-10.417 3.824-2.357 2.471-3.498 6.052-3.298 10.356.376 8.063 5.476 12.877 13.642 12.877l.247-.001c7.723-.091 12.77-4.811 12.895-13.527-.376-6.19-3.642-13.503-13.069-13.529z"/></svg>
