<svg xmlns="http://www.w3.org/2000/svg" width="399.677" height="56.6"><g fill="red"><path d="M394.46 46.167h5.217v5.217h-5.217zm0-25.563h5.217v5.217h-5.217zm-5.217 30.779h5.217V56.6h-5.217zm0-30.779h5.217v5.217h-5.217zm-5.217 30.779h5.217V56.6h-5.217z"/><path d="M384.026 46.167h5.217v5.217h-5.217zm0-4.699h5.217v4.698h-5.217zm0-5.212h5.217v5.212h-5.217z"/><path d="M384.026 31.039h5.217v5.218h-5.217zm0-5.218h5.217v5.217h-5.217zm0-5.217h5.217v5.217h-5.217z"/><path d="M384.026 15.388h5.217v5.217h-5.217z"/><path d="M378.81 20.604h5.217v5.217h-5.217zm-1.174 25.563v5.216l-2.869 4.695V50.86zm-8.086 4.693h5.217v5.218h-5.217zm0-4.693h5.217v4.693h-5.217zm0-5.217h5.217v5.217h-5.217zm0-5.217h5.217v5.217h-5.217zm0-5.217h5.217v5.217h-5.217zm-5.216 20.344h5.216v5.218h-5.216zm0-25.56h5.216v5.216h-5.216zm-5.217 0h5.217v5.216h-5.217zm-5.218 25.56h5.218v5.218h-5.218zm0-20.344h5.218v5.217h-5.218zm-4.693 20.344h4.693v5.218h-4.693zm0-4.693h4.693v4.693h-4.693zm0-5.217h4.693v5.217h-4.693zm0-5.217h4.693v5.217h-4.693zm0-5.217h4.693v5.217h-4.693zM349.206 25.3h4.693v5.216h-4.693zm-5.218 25.56h5.218v5.218h-5.218zm0-20.344h5.218v5.217h-5.218zm-13.694 15.651h5.218v5.217h-5.218zm0-15.128h5.218v5.218h-5.218zm0-5.218h5.218v5.217h-5.218zm-5.215 25.562h5.215V56.6h-5.215zm0-20.344h5.215v5.218h-5.215zm0-10.435h5.215v5.217h-5.215zM153.889 9.91h5.216v5.217h-5.216zm166.496 41.473h4.694V56.6h-4.694zm0-20.344h4.694v5.218h-4.694zm0-10.435h4.694v5.217h-4.694zm-171.191-.259h4.694v5.216h-4.694zm0-5.218h4.694v5.218h-4.694zm0-5.217h4.694v5.217h-4.694zm165.974 41.473h5.217V56.6h-5.217zm0-20.344h5.217v5.218h-5.217zm0-10.435h5.217v5.217h-5.217zM143.977 30.777h5.218v5.216h-5.218zm0-5.215h5.218v5.215h-5.218z"/><path d="M143.977 9.91h5.218v5.217h-5.218zm165.974 36.257h5.217v5.217h-5.217zm0-4.699h5.217v4.698h-5.217zm0-5.212h5.217v5.212h-5.217z"/><path d="M309.951 31.039h5.217v5.218h-5.217zm0-5.218h5.217v5.217h-5.217zM138.76 40.69h5.216v5.213h-5.216z"/><path d="M138.76 35.993h5.216v4.697h-5.216zm-5.217 9.91h5.217v5.218h-5.217zm0-15.126h5.217v5.216h-5.217zm0-5.215h5.217v5.215h-5.217zm0-15.652h5.217v5.217h-5.217zm165.974 36.257h5.217v5.217h-5.217zm0-20.346h5.217v5.217h-5.217zm-171.189 25.3h5.216v5.217h-5.216zm0-30.776h5.216v5.216h-5.216zm0-5.218h5.216v5.218h-5.216z"/><path d="M128.328 9.91h5.216v5.217h-5.216zm165.973 41.473h5.216V56.6h-5.216zm0-30.779h5.216v5.217h-5.216zm-171.19 30.517h5.217v5.217h-5.217zm0-41.211h5.217v5.217h-5.217zm166.496 41.473h4.693V56.6h-4.693zm0-30.779h4.693v5.217h-4.693z"/><path d="M284.391 51.383h5.217V56.6h-5.217zm0-30.779h5.217v5.217h-5.217zm-5.219 25.563h5.219v5.217h-5.219zm0-4.699h5.219v4.698h-5.219zm0-5.212h5.219v5.212h-5.219z"/><path d="M279.172 31.039h5.219v5.218h-5.219zm0-5.218h5.219v5.217h-5.219zM107.983 45.903h5.217v5.218h-5.217zm0-25.558h5.217v5.216h-5.217zm-5.217 30.776h5.217v5.217h-5.217zm0-30.776h5.217v5.216h-5.217zm165.972.259h5.217v5.217h-5.217zM97.55 51.121h5.216v5.217H97.55zm0-5.218h5.216v5.218H97.55zm0-5.213h5.216v5.213H97.55zM97.55 35.993h5.216v4.697H97.55zm0-5.216h5.216v5.216H97.55zm0-5.215h5.216v5.215H97.55zm0-5.217h5.216v5.216H97.55zm0-5.218h5.216v5.218H97.55zm0-5.217h5.216v5.217H97.55zm165.971 10.694h5.217v5.217h-5.217zm-171.188-.259h5.216v5.216h-5.216zm166.495 31.038h4.693V56.6h-4.693zm0-25.562h4.693v5.217h-4.693zM253.61 51.383h5.218V56.6h-5.218z"/><path d="M253.61 46.167h5.218v5.217h-5.218zm0-4.699h5.218v4.698h-5.218zm0-5.212h5.218v5.212h-5.218z"/><path d="M253.61 31.039h5.218v5.218h-5.218zm0-5.218h5.218v5.217h-5.218zm0-5.217h5.218v5.217h-5.218zM82.422 9.91h5.216v5.217h-5.216zm165.973 41.473h5.216V56.6h-5.216z"/><path d="M248.395 25.821h5.216v5.217h-5.216zM77.204 5.217h5.218V9.91h-5.218zm-5.216 45.904h5.216v5.217h-5.216zm0-25.559h5.216v5.215h-5.216zm0-20.345h5.216V9.91h-5.216zm-5.216 45.904h5.216v5.217h-5.216zm0-25.559h5.216v5.215h-5.216zm0-20.345h5.216V9.91h-5.216zm165.975 40.95h5.213v5.217h-5.213zm0-15.128h5.213v5.218h-5.213zm0-5.218h5.213v5.217h-5.213zm-171.192 25.3h5.217v5.217h-5.217zm0-5.218h5.217v5.218h-5.217zm0-5.213h5.217v5.213h-5.217zM61.555 35.993h5.217v4.697h-5.217zm0-5.216h5.217v5.216h-5.217zm0-5.215h5.217v5.215h-5.217zm0-5.217h5.217v5.216h-5.217zm0-5.218h5.217v5.218h-5.217zm0-5.217h5.217v5.217h-5.217zM228.05 51.383h4.697V56.6h-4.697zm0-20.344h4.697v5.218h-4.697zm0-10.435h4.697v5.217h-4.697zM56.86 51.121h4.695v5.217H56.86zm0-25.559h4.695v5.215H56.86zm165.973 25.821h5.217V56.6h-5.217zm0-20.344h5.217v5.218h-5.217zm0-10.435h5.217v5.217h-5.217zm-5.218 30.779h5.218V56.6h-5.218zm0-20.344h5.218v5.218h-5.218zm0-10.435h5.218v5.217h-5.218zM46.427 51.121h5.217v5.217h-5.217zm165.975-4.954h5.213v5.217h-5.213zm0-4.699h5.213v4.698h-5.213zm0-5.212h5.213v5.212h-5.213z"/><path d="M212.402 31.039h5.213v5.218h-5.213zm0-5.218h5.213v5.217h-5.213zm-171.191 25.3h5.216v5.217h-5.216zm0-5.218h5.216v5.218h-5.216zm0-5.213h5.216v5.213h-5.216z"/><path d="M41.211 35.993h5.216v4.697h-5.216zm0-5.216h5.216v5.216h-5.216zm0-5.215h5.216v5.215h-5.216zm0-15.652h5.216v5.217h-5.216zm-5.215 41.211h5.215v5.217h-5.215zm0-20.344h5.215v5.216h-5.215zm167.275-10.432h5.216v5.216h-5.216zm0-5.218h5.216v5.218h-5.216zm0-5.217h5.216v5.217h-5.216zm-4.694 15.652h4.695v5.215h-4.695zm0-20.345h4.695V9.91h-4.695zM26.083 9.91h4.694v5.217h-4.694zM193.36 30.777h5.217v5.216h-5.217zm0-30.777h5.217v5.217h-5.217zM20.866 5.217h5.217V9.91h-5.217zm167.279 25.56h5.215v5.216h-5.215zm0-30.777h5.215v5.217h-5.215zM15.65 51.121h5.216v5.217H15.65zm0-25.559h5.216v5.215H15.65zm0-20.345h5.216V9.91H15.65zm167.277 45.904h5.218v5.217h-5.218zm0-25.559h5.218v5.215h-5.218zm0-20.345h5.218V9.91h-5.218zM10.433 51.121h5.217v5.217h-5.217zm0-25.559h5.217v5.215h-5.217zm0-20.345h5.217V9.91h-5.217zm167.279 45.904h5.215v5.217h-5.215zm0-5.218h5.215v5.218h-5.215zm0-5.213h5.215v5.213h-5.215zM177.712 35.993h5.215v4.697h-5.215zm0-5.216h5.215v5.216h-5.215zm0-5.215h5.215v5.215h-5.215zm0-5.217h5.215v5.216h-5.215zm0-5.218h5.215v5.218h-5.215zm0-5.217h5.215v5.217h-5.215zm0-4.693h5.215V9.91h-5.215zm0-5.217h5.215v5.217h-5.215zM5.217 51.121h5.216v5.217H5.217zm0-5.218h5.216v5.218H5.217zm0-5.213h5.216v5.213H5.217zM5.217 35.993h5.216v4.697H5.217zm0-5.216h5.216v5.216H5.217zm0-5.215h5.216v5.215H5.217zm0-5.217h5.216v5.216H5.217zm0-5.218h5.216v5.218H5.217zm0-5.217h5.216v5.217H5.217zm167.277 41.211h5.218v5.217h-5.218zm0-45.904h5.218V9.91h-5.218zM0 51.121h5.217v5.217H0zm0-25.559h5.217v5.215H0z"/></g></svg>
