<svg xmlns="http://www.w3.org/2000/svg" width="103.336" height="113.562"><path fill="red" d="M85.095 113.563c-2.087-.688-3.443-2.205-4.638-3.959-4.54-6.674-7.457-13.914-7.539-22.086-.086-8.752 2.805-16.594 7.692-23.744 2.099-3.069 4.423-5.986 6.484-9.082 2.825-4.241 4.759-8.868 5.364-13.986.74-6.256-.842-11.941-4.362-17.076-4.272-6.229-9.714-11.052-17.235-12.877-8.972-2.177-16.912.572-24.188 5.715-5.753 4.067-9.39 9.559-10.442 16.598-.796 5.318.065 10.496 1.935 15.461 2.944 7.809 6.088 15.541 9.134 23.311 2.167 5.529 3.882 11.117 3.545 17.205-.651 11.772-9.863 21.524-21.572 23.031-13.752 1.766-27.05-7.468-29.03-21.845-.024-.189-.16-.361-.243-.541v-6.735c.105-.384.248-.759.315-1.148 1.572-9.174 7.704-16.826 17.193-18.607 2.071-.389 4.105-1.196 6.035-2.077 2.415-1.104 4.083-3.082 4.16-5.787.071-2.466-.195-4.984-.659-7.414-.993-5.182-1.786-10.373-.928-15.621C28.7 16.49 37.763 6.25 53.027 1.521 55.29.819 57.668.497 59.995 0h8.571c1.839.347 3.692.631 5.515 1.054C85.37 3.677 93.282 10.59 98.48 20.707c6.952 13.529 6.714 26.646-2.487 39.256-2.994 4.104-5.718 8.438-8.191 12.876-3.022 5.416-4.715 11.25-3.987 17.588.622 5.418 2.903 10.129 5.989 14.521 1.867 2.655 1.402 5.418-1.274 7.293-.768.538-1.672.887-2.515 1.321h-.92zM41.339 87.708c-.418-2.242-.67-4.533-1.289-6.719-1.267-4.468-3.91-7.806-8.519-9.214-10.644-3.25-20.609 3.443-21.314 14.474-.333 5.217 1.277 9.842 5.916 12.799 4.347 2.771 9.082 3.713 14.161 2.225 6.998-2.055 10.99-7.01 11.045-13.565z"/></svg>
